<?xml version="1.0" encoding="UTF-8"?>
<svg xmlns="http://www.w3.org/2000/svg" xmlns:xlink="http://www.w3.org/1999/xlink" width="102.000mm" height="12.000mm" viewBox="-103.999992 2.000008 102.000343 12.000000">
    <path transform="matrix(1.05155,0,0,-1,-201.688995,128.824005)" style="stroke:#000000;stroke-width:0.05mm;fill:none" d="M92.900002,126.823997L189.899994,126.823997L189.899994,114.823997L92.900002,114.823997L92.900002,126.823997z"/>
    <path transform="matrix(-1,0,0,1,0,0)" style="stroke:#000000;stroke-width:0.05mm;fill:none" d="M99.100098,9.699951L99.097656,9.699951L99.091553,9.818848C99.005219,10.66054,98.296059,11.300402,97.449951,11.300049C96.558174,11.299635,95.827774,10.591295,95.800049,9.699951L95.800049,4.699951L99.100098,4.699951L99.100098,9.699951z"/>
    <path transform="matrix(-1,0,0,1,6.35,0)" style="stroke:#000000;stroke-width:0.05mm;fill:none" d="M99.100098,9.699951L99.097656,9.699951L99.091553,9.818848C99.005219,10.66054,98.296059,11.300402,97.449951,11.300049C96.558174,11.299635,95.827774,10.591295,95.800049,9.699951L95.800049,4.699951L99.100098,4.699951L99.100098,9.699951z"/>
    <path transform="matrix(-1,0,0,1,12.7,0)" style="stroke:#000000;stroke-width:0.05mm;fill:none" d="M99.100098,9.699951L99.097656,9.699951L99.091553,9.818848C99.005219,10.66054,98.296059,11.300402,97.449951,11.300049C96.558174,11.299635,95.827774,10.591295,95.800049,9.699951L95.800049,4.699951L99.100098,4.699951L99.100098,9.699951z"/>
    <path transform="matrix(-1,0,0,1,19.049999,0)" style="stroke:#000000;stroke-width:0.05mm;fill:none" d="M99.100098,9.699951L99.097656,9.699951L99.091553,9.818848C99.005219,10.66054,98.296059,11.300402,97.449951,11.300049C96.558174,11.299635,95.827774,10.591295,95.800049,9.699951L95.800049,4.699951L99.100098,4.699951L99.100098,9.699951z"/>
    <path transform="matrix(-1,0,0,1,25.4,0)" style="stroke:#000000;stroke-width:0.05mm;fill:none" d="M99.100098,9.699951L99.097656,9.699951L99.091553,9.818848C99.005219,10.66054,98.296059,11.300402,97.449951,11.300049C96.558174,11.299635,95.827774,10.591295,95.800049,9.699951L95.800049,4.699951L99.100098,4.699951L99.100098,9.699951z"/>
    <path transform="matrix(-1,0,0,1,31.75,0)" style="stroke:#000000;stroke-width:0.05mm;fill:none" d="M99.100098,9.699951L99.097656,9.699951L99.091553,9.818848C99.005219,10.66054,98.296059,11.300402,97.449951,11.300049C96.558174,11.299635,95.827774,10.591295,95.800049,9.699951L95.800049,4.699951L99.100098,4.699951L99.100098,9.699951z"/>
    <path transform="matrix(-1,0,0,1,38.099998,0)" style="stroke:#000000;stroke-width:0.05mm;fill:none" d="M99.100098,9.699951L99.097656,9.699951L99.091553,9.818848C99.005219,10.66054,98.296059,11.300402,97.449951,11.300049C96.558174,11.299635,95.827774,10.591295,95.800049,9.699951L95.800049,4.699951L99.100098,4.699951L99.100098,9.699951z"/>
    <path transform="matrix(-1,0,0,1,44.450001,0)" style="stroke:#000000;stroke-width:0.05mm;fill:none" d="M99.100098,9.699951L99.097656,9.699951L99.091553,9.818848C99.005219,10.66054,98.296059,11.300402,97.449951,11.300049C96.558174,11.299635,95.827774,10.591295,95.800049,9.699951L95.800049,4.699951L99.100098,4.699951L99.100098,9.699951z"/>
    <path transform="matrix(-1,0,0,1,50.799999,0)" style="stroke:#000000;stroke-width:0.05mm;fill:none" d="M99.100098,9.699951L99.097656,9.699951L99.091553,9.818848C99.005219,10.66054,98.296059,11.300402,97.449951,11.300049C96.558174,11.299635,95.827774,10.591295,95.800049,9.699951L95.800049,4.699951L99.100098,4.699951L99.100098,9.699951z"/>
    <path transform="matrix(-1,0,0,1,57.150002,0)" style="stroke:#000000;stroke-width:0.05mm;fill:none" d="M99.100098,9.699951L99.097656,9.699951L99.091553,9.818848C99.005219,10.66054,98.296059,11.300402,97.449951,11.300049C96.558174,11.299635,95.827774,10.591295,95.800049,9.699951L95.800049,4.699951L99.100098,4.699951L99.100098,9.699951z"/>
    <path transform="matrix(-1,0,0,1,63.5,0)" style="stroke:#000000;stroke-width:0.05mm;fill:none" d="M99.100098,9.699951L99.097656,9.699951L99.091553,9.818848C99.005219,10.66054,98.296059,11.300402,97.449951,11.300049C96.558174,11.299635,95.827774,10.591295,95.800049,9.699951L95.800049,4.699951L99.100098,4.699951L99.100098,9.699951z"/>
    <path transform="matrix(-1,0,0,1,69.849998,0)" style="stroke:#000000;stroke-width:0.05mm;fill:none" d="M99.100098,9.699951L99.097656,9.699951L99.091553,9.818848C99.005219,10.66054,98.296059,11.300402,97.449951,11.300049C96.558174,11.299635,95.827774,10.591295,95.800049,9.699951L95.800049,4.699951L99.100098,4.699951L99.100098,9.699951z"/>
    <path transform="matrix(-1,0,0,1,76.199997,0)" style="stroke:#000000;stroke-width:0.05mm;fill:none" d="M99.100098,9.699951L99.097656,9.699951L99.091553,9.818848C99.005219,10.66054,98.296059,11.300402,97.449951,11.300049C96.558174,11.299635,95.827774,10.591295,95.800049,9.699951L95.800049,4.699951L99.100098,4.699951L99.100098,9.699951z"/>
    <path transform="matrix(-1,0,0,1,82.550003,0)" style="stroke:#000000;stroke-width:0.05mm;fill:none" d="M99.100098,9.699951L99.097656,9.699951L99.091553,9.818848C99.005219,10.66054,98.296059,11.300402,97.449951,11.300049C96.558174,11.299635,95.827774,10.591295,95.800049,9.699951L95.800049,4.699951L99.100098,4.699951L99.100098,9.699951z"/>
    <path transform="matrix(-1,0,0,1,88.900002,0)" style="stroke:#000000;stroke-width:0.05mm;fill:none" d="M99.100098,9.699951L99.097656,9.699951L99.091553,9.818848C99.005219,10.66054,98.296059,11.300402,97.449951,11.300049C96.558174,11.299635,95.827774,10.591295,95.800049,9.699951L95.800049,4.699951L99.100098,4.699951L99.100098,9.699951z"/>
</svg>
