<?xml version="1.0" encoding="UTF-8"?>
<svg xmlns="http://www.w3.org/2000/svg" xmlns:xlink="http://www.w3.org/1999/xlink" width="109.200mm" height="25.400mm" viewBox="0 0 109.2 25.4">

<!-- outline, cut corner to signify cell 15 facing beamline door -->
    <path transform="matrix(1,0,0,1,0,0)" style="stroke:#000000;stroke-width:0.05mm;fill:none" d="
	M0,3
	L0,25.4
	L109.2,25.4
	L109.2,0
	L3,0
	z"/>

<!-- screw holes, corner screw is offset from edge by (3.8,2.5). -->
    <circle transform="matrix(1,0,0,1,3.8,22.9)" style="stroke:#000000;stroke-width:0.05mm;fill:none" r="1" cx="0" cy="0"/>
    <circle transform="matrix(1,0,0,1,29.2,22.9)" style="stroke:#000000;stroke-width:0.05mm;fill:none" r="1" cx="0" cy="0"/>
    <circle transform="matrix(1,0,0,1,54.6,22.9)" style="stroke:#000000;stroke-width:0.05mm;fill:none" r="1" cx="0" cy="0"/>
    <circle transform="matrix(1,0,0,1,80,22.9)" style="stroke:#000000;stroke-width:0.05mm;fill:none" r="1" cx="0" cy="0"/>
    <circle transform="matrix(1,0,0,1,105.4,22.9)" style="stroke:#000000;stroke-width:0.05mm;fill:none" r="1" cx="0" cy="0"/>
    <circle transform="matrix(1,0,0,1,105.4,2.5)" style="stroke:#000000;stroke-width:0.05mm;fill:none" r="1" cx="0" cy="0"/>
    <circle transform="matrix(1,0,0,1,80,2.5)" style="stroke:#000000;stroke-width:0.05mm;fill:none" r="1" cx="0" cy="0"/>
    <circle transform="matrix(1,0,0,1,54.6,2.5)" style="stroke:#000000;stroke-width:0.05mm;fill:none" r="1" cx="0" cy="0"/>
    <circle transform="matrix(1,0,0,1,29.2,2.5)" style="stroke:#000000;stroke-width:0.05mm;fill:none" r="1" cx="0" cy="0"/>
    <circle transform="matrix(1,0,0,1,3.8,2.5)" style="stroke:#000000;stroke-width:0.05mm;fill:none" r="1" cx="0" cy="0"/>

<!-- 15 holes -->
    <path transform="matrix(1,0,0,1,10.15,12.7)" style="stroke:#000000;stroke-width:0.05mm;fill:none" d="
	M-2,-3.5
	L-2,-2.5
	L-0.75,-1.5
	L-0.75,2.75
	A0.75,0.75 0 0,0 0.75,2.75
	L0.75,-1.5
	L2,-2.5
	L2,-3.5

	z"/>
    <path transform="matrix(1,0,0,1,16.5,12.7)" style="stroke:#000000;stroke-width:0.05mm;fill:none" d="
	M-2,-3.5
	L-2,-2.5
	L-0.75,-1.5
	L-0.75,2.75
	A0.75,0.75 0 0,0 0.75,2.75
	L0.75,-1.5
	L2,-2.5
	L2,-3.5

	z"/>
    <path transform="matrix(1,0,0,1,22.85,12.7)" style="stroke:#000000;stroke-width:0.05mm;fill:none" d="
	M-2,-3.5
	L-2,-2.5
	L-0.75,-1.5
	L-0.75,2.75
	A0.75,0.75 0 0,0 0.75,2.75
	L0.75,-1.5
	L2,-2.5
	L2,-3.5

	z"/>
    <path transform="matrix(1,0,0,1,29.2,12.7)" style="stroke:#000000;stroke-width:0.05mm;fill:none" d="
	M-2,-3.5
	L-2,-2.5
	L-0.75,-1.5
	L-0.75,2.75
	A0.75,0.75 0 0,0 0.75,2.75
	L0.75,-1.5
	L2,-2.5
	L2,-3.5

	z"/>
    <path transform="matrix(1,0,0,1,35.55,12.7)" style="stroke:#000000;stroke-width:0.05mm;fill:none" d="
	M-2,-3.5
	L-2,-2.5
	L-0.75,-1.5
	L-0.75,2.75
	A0.75,0.75 0 0,0 0.75,2.75
	L0.75,-1.5
	L2,-2.5
	L2,-3.5

	z"/>
    <path transform="matrix(1,0,0,1,41.9,12.7)" style="stroke:#000000;stroke-width:0.05mm;fill:none" d="
	M-2,-3.5
	L-2,-2.5
	L-0.75,-1.5
	L-0.75,2.75
	A0.75,0.75 0 0,0 0.75,2.75
	L0.75,-1.5
	L2,-2.5
	L2,-3.5
	z"/>
    <path transform="matrix(1,0,0,1,48.25,12.7)" style="stroke:#000000;stroke-width:0.05mm;fill:none" d="
	M-2,-3.5
	L-2,-2.5
	L-0.75,-1.5
	L-0.75,2.75
	A0.75,0.75 0 0,0 0.75,2.75
	L0.75,-1.5
	L2,-2.5
	L2,-3.5

	z"/>
    <path transform="matrix(1,0,0,1,54.6,12.7)" style="stroke:#000000;stroke-width:0.05mm;fill:none" d="
	M-2,-3.5
	L-2,-2.5
	L-0.75,-1.5
	L-0.75,2.75
	A0.75,0.75 0 0,0 0.75,2.75
	L0.75,-1.5
	L2,-2.5
	L2,-3.5

	z"/>
    <path transform="matrix(1,0,0,1,60.95,12.7)" style="stroke:#000000;stroke-width:0.05mm;fill:none" d="
	M-2,-3.5
	L-2,-2.5
	L-0.75,-1.5
	L-0.75,2.75
	A0.75,0.75 0 0,0 0.75,2.75
	L0.75,-1.5
	L2,-2.5
	L2,-3.5

	z"/>
    <path transform="matrix(1,0,0,1,67.3,12.7)" style="stroke:#000000;stroke-width:0.05mm;fill:none" d="
	M-2,-3.5
	L-2,-2.5
	L-0.75,-1.5
	L-0.75,2.75
	A0.75,0.75 0 0,0 0.75,2.75
	L0.75,-1.5
	L2,-2.5
	L2,-3.5

	z"/>
    <path transform="matrix(1,0,0,1,73.65,12.7)" style="stroke:#000000;stroke-width:0.05mm;fill:none" d="
	M-2,-3.5
	L-2,-2.5
	L-0.75,-1.5
	L-0.75,2.75
	A0.75,0.75 0 0,0 0.75,2.75
	L0.75,-1.5
	L2,-2.5
	L2,-3.5

	z"/>
    <path transform="matrix(1,0,0,1,80.0,12.7)" style="stroke:#000000;stroke-width:0.05mm;fill:none" d="
	M-2,-3.5
	L-2,-2.5
	L-0.75,-1.5
	L-0.75,2.75
	A0.75,0.75 0 0,0 0.75,2.75
	L0.75,-1.5
	L2,-2.5
	L2,-3.5

	z"/>
    <path transform="matrix(1,0,0,1,86.35,12.7)" style="stroke:#000000;stroke-width:0.05mm;fill:none" d="
	M-2,-3.5
	L-2,-2.5
	L-0.75,-1.5
	L-0.75,2.75
	A0.75,0.75 0 0,0 0.75,2.75
	L0.75,-1.5
	L2,-2.5
	L2,-3.5

	z"/>
    <path transform="matrix(1,0,0,1,92.7,12.7)" style="stroke:#000000;stroke-width:0.05mm;fill:none" d="
	M-2,-3.5
	L-2,-2.5
	L-0.75,-1.5
	L-0.75,2.75
	A0.75,0.75 0 0,0 0.75,2.75
	L0.75,-1.5
	L2,-2.5
	L2,-3.5

	z"/>
    <path transform="matrix(1,0,0,1,99.05,12.7)" style="stroke:#000000;stroke-width:0.05mm;fill:none" d="
	M-2,-3.5
	L-2,-2.5
	L-0.75,-1.5
	L-0.75,2.75
	A0.75,0.75 0 0,0 0.75,2.75
	L0.75,-1.5
	L2,-2.5
	L2,-3.5

	z"/>
</svg>
