<?xml version="1.0" encoding="UTF-8"?>
<svg xmlns="http://www.w3.org/2000/svg" xmlns:xlink="http://www.w3.org/1999/xlink" width="109.200mm" height="25.400mm" viewBox="-91.075211 55.892311 109.199997 25.400063">
    <ellipse transform="matrix(0.264584,0,0,0.264584,-87.264664,78.787651)" style="stroke:#000000;stroke-width:0.05mm;fill:none" rx="3.467143" ry="3.466666" cx="0" cy="0"/>
    <ellipse transform="matrix(0.264584,0,0,0.264584,-61.861107,78.787651)" style="stroke:#000000;stroke-width:0.05mm;fill:none" rx="3.467143" ry="3.466666" cx="0" cy="0"/>
    <ellipse transform="matrix(0.264584,0,0,0.264584,-36.457527,78.787651)" style="stroke:#000000;stroke-width:0.05mm;fill:none" rx="3.467143" ry="3.466666" cx="0" cy="0"/>
    <ellipse transform="matrix(0.264584,0,0,0.264584,-11.053989,78.787651)" style="stroke:#000000;stroke-width:0.05mm;fill:none" rx="3.467143" ry="3.466666" cx="0" cy="0"/>
    <ellipse transform="matrix(0.264584,0,0,0.264584,14.349578,78.787651)" style="stroke:#000000;stroke-width:0.05mm;fill:none" rx="3.467143" ry="3.466666" cx="0" cy="0"/>
    <ellipse transform="matrix(0.264584,0,0,0.264584,-87.264664,58.397038)" style="stroke:#000000;stroke-width:0.05mm;fill:none" rx="3.467143" ry="3.466666" cx="0" cy="0"/>
    <ellipse transform="matrix(0.264584,0,0,0.264584,-61.861107,58.397038)" style="stroke:#000000;stroke-width:0.05mm;fill:none" rx="3.467143" ry="3.466666" cx="0" cy="0"/>
    <ellipse transform="matrix(0.264584,0,0,0.264584,-36.457527,58.397038)" style="stroke:#000000;stroke-width:0.05mm;fill:none" rx="3.467143" ry="3.466666" cx="0" cy="0"/>
    <ellipse transform="matrix(0.264584,0,0,0.264584,-11.053989,58.397038)" style="stroke:#000000;stroke-width:0.05mm;fill:none" rx="3.467143" ry="3.466666" cx="0" cy="0"/>
    <ellipse transform="matrix(0.264584,0,0,0.264584,14.349578,58.397038)" style="stroke:#000000;stroke-width:0.05mm;fill:none" rx="3.467143" ry="3.466666" cx="0" cy="0"/>
    <path transform="matrix(-1.000138,0,0,1,218.152481,55.892273)" style="stroke:#000000;stroke-width:0.05mm;fill:none" d="M309.18512,3.633657L309.18512,25.400097L200.000153,25.400097L200.000153,0.000037L305.551514,0.000037L309.18512,3.633657z"/>
    <path transform="matrix(-1.000138,0,0,1,218.152481,55.892273)" style="stroke:#004754;stroke-width:0.05mm;fill:none" d="M301.035919,8.713669L301.035919,9.701449L299.801208,10.689228L299.801208,14.922573C299.801208,15.345906,299.448425,15.663406,299.060364,15.663406C298.672302,15.663406,298.31955,15.310628,298.31955,14.922573L298.31955,10.689228L297.084808,9.701449L297.084808,8.713669L301.035919,8.713669z"/>
    <path transform="matrix(-1.000138,0,0,1,218.152481,55.892273)" style="stroke:#004754;stroke-width:0.05mm;fill:none" d="M218.485748,8.713669L218.485748,9.701449L217.251007,10.689228L217.251007,14.922573C217.251007,15.345906,216.898239,15.663406,216.510178,15.663406C216.122131,15.663406,215.769348,15.310628,215.769348,14.922573L215.769348,10.689228L214.534607,9.701449L214.534607,8.713669L218.485748,8.713669z"/>
    <path transform="matrix(-1.000138,0,0,1,218.152481,55.892273)" style="stroke:#004754;stroke-width:0.05mm;fill:none" d="M224.835754,8.713669L224.835754,9.701449L223.601044,10.689228L223.601044,14.922573C223.601044,15.345906,223.24826,15.663406,222.860199,15.663406C222.472137,15.663406,222.119354,15.310628,222.119354,14.922573L222.119354,10.689228L220.884628,9.701449L220.884628,8.713669L224.835754,8.713669z"/>
    <path transform="matrix(-1.000138,0,0,1,218.152481,55.892273)" style="stroke:#004754;stroke-width:0.05mm;fill:none" d="M231.18576,8.713669L231.18576,9.701449L229.95105,10.689228L229.95105,14.922573C229.95105,15.345906,229.598267,15.663406,229.210205,15.663406C228.822144,15.663406,228.469376,15.310628,228.469376,14.922573L228.469376,10.689228L227.23465,9.701449L227.23465,8.713669L231.18576,8.713669z"/>
    <path transform="matrix(-1.000138,0,0,1,218.152481,55.892273)" style="stroke:#004754;stroke-width:0.05mm;fill:none" d="M237.535797,8.713669L237.535797,9.701449L236.301056,10.689228L236.301056,14.922573C236.301056,15.345906,235.948273,15.663406,235.560226,15.663406C235.172165,15.663406,234.819382,15.310628,234.819382,14.922573L234.819382,10.689228L233.584656,9.701449L233.584656,8.713669L237.535797,8.713669z"/>
    <path transform="matrix(-1.000138,0,0,1,218.152481,55.892273)" style="stroke:#004754;stroke-width:0.05mm;fill:none" d="M243.885803,8.713669L243.885803,9.701449L242.651062,10.689228L242.651062,14.922573C242.651062,15.345906,242.298309,15.663406,241.910248,15.663406C241.522186,15.663406,241.169403,15.310628,241.169403,14.922573L241.169403,10.689228L239.934677,9.701449L239.934677,8.713669L243.885803,8.713669z"/>
    <path transform="matrix(-1.000138,0,0,1,218.152481,55.892273)" style="stroke:#004754;stroke-width:0.05mm;fill:none" d="M250.235809,8.713669L250.235809,9.701449L249.001099,10.689228L249.001099,14.922573C249.001099,15.345906,248.648315,15.663406,248.260254,15.663406C247.872192,15.663406,247.519409,15.310628,247.519409,14.922573L247.519409,10.689228L246.284698,9.701449L246.284698,8.713669L250.235809,8.713669z"/>
    <path transform="matrix(-1.000138,0,0,1,218.152481,55.892273)" style="stroke:#004754;stroke-width:0.05mm;fill:none" d="M256.585815,8.713669L256.585815,9.701449L255.351105,10.689228L255.351105,14.922573C255.351105,15.345906,254.998322,15.663406,254.61026,15.663406C254.222198,15.663406,253.869431,15.310628,253.869431,14.922573L253.869431,10.689228L252.634705,9.701449L252.634705,8.713669L256.585815,8.713669z"/>
    <path transform="matrix(-1.000138,0,0,1,218.152481,55.892273)" style="stroke:#004754;stroke-width:0.05mm;fill:none" d="M262.935852,8.713669L262.935852,9.701449L261.701111,10.689228L261.701111,14.922573C261.701111,15.345906,261.348328,15.663406,260.960266,15.663406C260.572235,15.663406,260.219452,15.310628,260.219452,14.922573L260.219452,10.689228L258.984711,9.701449L258.984711,8.713669L262.935852,8.713669z"/>
    <path transform="matrix(-1.000138,0,0,1,218.152481,55.892273)" style="stroke:#004754;stroke-width:0.05mm;fill:none" d="M269.285858,8.713669L269.285858,9.701449L268.051147,10.689228L268.051147,14.922573C268.051147,15.345906,267.698364,15.663406,267.310303,15.663406C266.922241,15.663406,266.569458,15.310628,266.569458,14.922573L266.569458,10.689228L265.334747,9.701449L265.334747,8.713669L269.285858,8.713669z"/>
    <path transform="matrix(-1.000138,0,0,1,218.152481,55.892273)" style="stroke:#004754;stroke-width:0.05mm;fill:none" d="M275.635864,8.713669L275.635864,9.701449L274.401154,10.689228L274.401154,14.922573C274.401154,15.345906,274.04837,15.663406,273.660309,15.663406C273.272278,15.663406,272.919495,15.310628,272.919495,14.922573L272.919495,10.689228L271.684753,9.701449L271.684753,8.713669L275.635864,8.713669z"/>
    <path transform="matrix(-1.000138,0,0,1,218.152481,55.892273)" style="stroke:#004754;stroke-width:0.05mm;fill:none" d="M281.985901,8.713669L281.985901,9.701449L280.75116,10.689228L280.75116,14.922573C280.75116,15.345906,280.398376,15.663406,280.010315,15.663406C279.622284,15.663406,279.269501,15.310628,279.269501,14.922573L279.269501,10.689228L278.03476,9.701449L278.03476,8.713669L281.985901,8.713669z"/>
    <path transform="matrix(-1.000138,0,0,1,218.152481,55.892273)" style="stroke:#004754;stroke-width:0.05mm;fill:none" d="M288.335907,8.713669L288.335907,9.701449L287.101166,10.689228L287.101166,14.922573C287.101166,15.345906,286.748413,15.663406,286.360352,15.663406C285.97229,15.663406,285.619507,15.310628,285.619507,14.922573L285.619507,10.689228L284.384796,9.701449L284.384796,8.713669L288.335907,8.713669z"/>
    <path transform="matrix(-1.000138,0,0,1,218.152481,55.892273)" style="stroke:#004754;stroke-width:0.05mm;fill:none" d="M294.685913,8.713669L294.685913,9.701449L293.451202,10.689228L293.451202,14.922573C293.451202,15.345906,293.098419,15.663406,292.710358,15.663406C292.322296,15.663406,291.969513,15.310628,291.969513,14.922573L291.969513,10.689228L290.734802,9.701449L290.734802,8.713669L294.685913,8.713669z"/>
    <path transform="matrix(-1.000138,0,0,1,218.152481,55.892273)" style="stroke:#004754;stroke-width:0.05mm;fill:none" d="M212.135727,8.713669L212.135727,9.701449L210.901001,10.689228L210.901001,14.922573C210.901001,15.345906,210.548218,15.663406,210.160156,15.663406C209.772095,15.663406,209.419342,15.310628,209.419342,14.922573L209.419342,10.689228L208.184601,9.701449L208.184601,8.713669L212.135727,8.713669z"/>
</svg>
