<?xml version="1.0" encoding="UTF-8"?>
<svg xmlns="http://www.w3.org/2000/svg" xmlns:xlink="http://www.w3.org/1999/xlink" width="109.200mm" height="25.400mm" viewBox="-111.599998 3.304000 109.199997 25.400002">
    <circle transform="matrix(1,0,0,-1,-107.800003,26.200001)" style="stroke:#000000;stroke-width:0.05mm;fill:none" r="0.899997" cx="0" cy="0"/>
    <circle transform="matrix(1,0,0,-1,-82.400002,26.200001)" style="stroke:#000000;stroke-width:0.05mm;fill:none" r="0.900003" cx="0" cy="0"/>
    <circle transform="matrix(1,0,0,-1,-57,26.200001)" style="stroke:#000000;stroke-width:0.05mm;fill:none" r="0.900001" cx="0" cy="0"/>
    <circle transform="matrix(1,0,0,-1,-31.6,26.200001)" style="stroke:#000000;stroke-width:0.05mm;fill:none" r="0.9" cx="0" cy="0"/>
    <circle transform="matrix(1,0,0,-1,-6.19998,26.200001)" style="stroke:#000000;stroke-width:0.05mm;fill:none" r="0.9" cx="0" cy="0"/>
    <circle transform="matrix(1,0,0,-1,-107.800003,5.8)" style="stroke:#000000;stroke-width:0.05mm;fill:none" r="0.899997" cx="0" cy="0"/>
    <circle transform="matrix(1,0,0,-1,-82.400002,5.8)" style="stroke:#000000;stroke-width:0.05mm;fill:none" r="0.900003" cx="0" cy="0"/>
    <circle transform="matrix(1,0,0,-1,-57,5.8)" style="stroke:#000000;stroke-width:0.05mm;fill:none" r="0.900001" cx="0" cy="0"/>
    <circle transform="matrix(1,0,0,-1,-31.6,5.8)" style="stroke:#000000;stroke-width:0.05mm;fill:none" r="0.9" cx="0" cy="0"/>
    <circle transform="matrix(1,0,0,-1,-6.19998,5.8)" style="stroke:#000000;stroke-width:0.05mm;fill:none" r="0.9" cx="0" cy="0"/>
    <path transform="matrix(-1,0,0,1,0,0)" style="stroke:#000000;stroke-width:0.05mm;fill:none" d="M111.599998,6.92L111.599998,28.704L2.4,28.704L2.4,3.304L107.984001,3.304L111.599998,6.92z"/>
    <path transform="matrix(-1,0,0,1,0,-0.000707)" style="stroke:#000000;stroke-width:0.05mm;fill:none" d="M101.493896,13.000977L102.949951,13.000977L102.949951,17.500977L102.949707,17.500977L102.919189,17.802734C102.752007,18.614136,101.958977,19.136564,101.147461,18.969971C100.450043,18.826517,99.949593,18.212509,99.949707,17.500488L99.949707,14.500488L99.949951,14.498047L99.949951,13.000977L101.481689,13.000977L101.489754,13.000488L101.493896,13.000977z"/>
    <path transform="matrix(-1,0,0,1,6.35,-0.000707)" style="stroke:#000000;stroke-width:0.05mm;fill:none" d="M101.493896,13.000977L102.949951,13.000977L102.949951,17.500977L102.949707,17.500977L102.919189,17.802734C102.752007,18.614136,101.958977,19.136564,101.147461,18.969971C100.450043,18.826517,99.949593,18.212509,99.949707,17.500488L99.949707,14.500488L99.949951,14.498047L99.949951,13.000977L101.481689,13.000977L101.489754,13.000488L101.493896,13.000977z"/>
    <path transform="matrix(-1,0,0,1,12.7,-0.000707)" style="stroke:#000000;stroke-width:0.05mm;fill:none" d="M101.493896,13.000977L102.949951,13.000977L102.949951,17.500977L102.949707,17.500977L102.919189,17.802734C102.752007,18.614136,101.958977,19.136564,101.147461,18.969971C100.450043,18.826517,99.949593,18.212509,99.949707,17.500488L99.949707,14.500488L99.949951,14.498047L99.949951,13.000977L101.481689,13.000977L101.489754,13.000488L101.493896,13.000977z"/>
    <path transform="matrix(-1,0,0,1,19.049999,-0.000707)" style="stroke:#000000;stroke-width:0.05mm;fill:none" d="M101.493896,13.000977L102.949951,13.000977L102.949951,17.500977L102.949707,17.500977L102.919189,17.802734C102.752007,18.614136,101.958977,19.136564,101.147461,18.969971C100.450043,18.826517,99.949593,18.212509,99.949707,17.500488L99.949707,14.500488L99.949951,14.498047L99.949951,13.000977L101.481689,13.000977L101.489754,13.000488L101.493896,13.000977z"/>
    <path transform="matrix(-1,0,0,1,25.4,-0.000707)" style="stroke:#000000;stroke-width:0.05mm;fill:none" d="M101.493896,13.000977L102.949951,13.000977L102.949951,17.500977L102.949707,17.500977L102.919189,17.802734C102.752007,18.614136,101.958977,19.136564,101.147461,18.969971C100.450043,18.826517,99.949593,18.212509,99.949707,17.500488L99.949707,14.500488L99.949951,14.498047L99.949951,13.000977L101.481689,13.000977L101.489754,13.000488L101.493896,13.000977z"/>
    <path transform="matrix(-1,0,0,1,31.75,-0.000707)" style="stroke:#000000;stroke-width:0.05mm;fill:none" d="M101.493896,13.000977L102.949951,13.000977L102.949951,17.500977L102.949707,17.500977L102.919189,17.802734C102.752007,18.614136,101.958977,19.136564,101.147461,18.969971C100.450043,18.826517,99.949593,18.212509,99.949707,17.500488L99.949707,14.500488L99.949951,14.498047L99.949951,13.000977L101.481689,13.000977L101.489754,13.000488L101.493896,13.000977z"/>
    <path transform="matrix(-1,0,0,1,38.099998,-0.000707)" style="stroke:#000000;stroke-width:0.05mm;fill:none" d="M101.493896,13.000977L102.949951,13.000977L102.949951,17.500977L102.949707,17.500977L102.919189,17.802734C102.752007,18.614136,101.958977,19.136564,101.147461,18.969971C100.450043,18.826517,99.949593,18.212509,99.949707,17.500488L99.949707,14.500488L99.949951,14.498047L99.949951,13.000977L101.481689,13.000977L101.489754,13.000488L101.493896,13.000977z"/>
    <path transform="matrix(-1,0,0,1,44.450001,-0.000707)" style="stroke:#000000;stroke-width:0.05mm;fill:none" d="M101.493896,13.000977L102.949951,13.000977L102.949951,17.500977L102.949707,17.500977L102.919189,17.802734C102.752007,18.614136,101.958977,19.136564,101.147461,18.969971C100.450043,18.826517,99.949593,18.212509,99.949707,17.500488L99.949707,14.500488L99.949951,14.498047L99.949951,13.000977L101.481689,13.000977L101.489754,13.000488L101.493896,13.000977z"/>
    <path transform="matrix(-1,0,0,1,50.799999,-0.000707)" style="stroke:#000000;stroke-width:0.05mm;fill:none" d="M101.493896,13.000977L102.949951,13.000977L102.949951,17.500977L102.949707,17.500977L102.919189,17.802734C102.752007,18.614136,101.958977,19.136564,101.147461,18.969971C100.450043,18.826517,99.949593,18.212509,99.949707,17.500488L99.949707,14.500488L99.949951,14.498047L99.949951,13.000977L101.481689,13.000977L101.489754,13.000488L101.493896,13.000977z"/>
    <path transform="matrix(-1,0,0,1,57.150002,-0.000707)" style="stroke:#000000;stroke-width:0.05mm;fill:none" d="M101.493896,13.000977L102.949951,13.000977L102.949951,17.500977L102.949707,17.500977L102.919189,17.802734C102.752007,18.614136,101.958977,19.136564,101.147461,18.969971C100.450043,18.826517,99.949593,18.212509,99.949707,17.500488L99.949707,14.500488L99.949951,14.498047L99.949951,13.000977L101.481689,13.000977L101.489754,13.000488L101.493896,13.000977z"/>
    <path transform="matrix(-1,0,0,1,63.5,-0.000707)" style="stroke:#000000;stroke-width:0.05mm;fill:none" d="M101.493896,13.000977L102.949951,13.000977L102.949951,17.500977L102.949707,17.500977L102.919189,17.802734C102.752007,18.614136,101.958977,19.136564,101.147461,18.969971C100.450043,18.826517,99.949593,18.212509,99.949707,17.500488L99.949707,14.500488L99.949951,14.498047L99.949951,13.000977L101.481689,13.000977L101.489754,13.000488L101.493896,13.000977z"/>
    <path transform="matrix(-1,0,0,1,69.849998,-0.000707)" style="stroke:#000000;stroke-width:0.05mm;fill:none" d="M101.493896,13.000977L102.949951,13.000977L102.949951,17.500977L102.949707,17.500977L102.919189,17.802734C102.752007,18.614136,101.958977,19.136564,101.147461,18.969971C100.450043,18.826517,99.949593,18.212509,99.949707,17.500488L99.949707,14.500488L99.949951,14.498047L99.949951,13.000977L101.481689,13.000977L101.489754,13.000488L101.493896,13.000977z"/>
    <path transform="matrix(-1,0,0,1,76.199997,-0.000707)" style="stroke:#000000;stroke-width:0.05mm;fill:none" d="M101.493896,13.000977L102.949951,13.000977L102.949951,17.500977L102.949707,17.500977L102.919189,17.802734C102.752007,18.614136,101.958977,19.136564,101.147461,18.969971C100.450043,18.826517,99.949593,18.212509,99.949707,17.500488L99.949707,14.500488L99.949951,14.498047L99.949951,13.000977L101.481689,13.000977L101.489754,13.000488L101.493896,13.000977z"/>
    <path transform="matrix(-1,0,0,1,82.550003,-0.000707)" style="stroke:#000000;stroke-width:0.05mm;fill:none" d="M101.493896,13.000977L102.949951,13.000977L102.949951,17.500977L102.949707,17.500977L102.919189,17.802734C102.752007,18.614136,101.958977,19.136564,101.147461,18.969971C100.450043,18.826517,99.949593,18.212509,99.949707,17.500488L99.949707,14.500488L99.949951,14.498047L99.949951,13.000977L101.481689,13.000977L101.489754,13.000488L101.493896,13.000977z"/>
    <path transform="matrix(-1,0,0,1,88.900002,-0.000707)" style="stroke:#000000;stroke-width:0.05mm;fill:none" d="M101.493896,13.000977L102.949951,13.000977L102.949951,17.500977L102.949707,17.500977L102.919189,17.802734C102.752007,18.614136,101.958977,19.136564,101.147461,18.969971C100.450043,18.826517,99.949593,18.212509,99.949707,17.500488L99.949707,14.500488L99.949951,14.498047L99.949951,13.000977L101.481689,13.000977L101.489754,13.000488L101.493896,13.000977z"/>
</svg>
