<?xml version="1.0" encoding="UTF-8"?>
<svg xmlns="http://www.w3.org/2000/svg" xmlns:xlink="http://www.w3.org/1999/xlink" width="104.000mm" height="14.000mm" viewBox="-1 -1 103 13">

<!-- tape edge -->
    <path transform="matrix(1,0,0,1,0,0)" style="stroke:#0000ff;stroke-width:0.05mm;fill:none" d="
	M0,0
	L0,12
	L102,12
	L102,0
	L0,0
	z"/>

<!-- 15 sample holes, 1.1x strip hole size-->
    <path transform="matrix(1,0,0,1,6.55,6)" style="stroke:#0000ff;stroke-width:0.05mm;fill:none" d="
	M-1.65,-3.3
	L1.65,-3.3
	L1.65,1.65
	A1.65,1.65 0 0,1 -1.65,1.65

	z"/>
    <path transform="matrix(1,0,0,1,12.9,6)" style="stroke:#0000ff;stroke-width:0.05mm;fill:none" d="
	M-1.65,-3.3
	L1.65,-3.3
	L1.65,1.65
	A1.65,1.65 0 0,1 -1.65,1.65

	z"/>
    <path transform="matrix(1,0,0,1,19.25,6)" style="stroke:#0000ff;stroke-width:0.05mm;fill:none" d="
	M-1.65,-3.3
	L1.65,-3.3
	L1.65,1.65
	A1.65,1.65 0 0,1 -1.65,1.65

	z"/>
    <path transform="matrix(1,0,0,1,25.6,6)" style="stroke:#0000ff;stroke-width:0.05mm;fill:none" d="
	M-1.65,-3.3
	L1.65,-3.3
	L1.65,1.65
	A1.65,1.65 0 0,1 -1.65,1.65

	z"/>
    <path transform="matrix(1,0,0,1,31.95,6)" style="stroke:#0000ff;stroke-width:0.05mm;fill:none" d="
	M-1.65,-3.3
	L1.65,-3.3
	L1.65,1.65
	A1.65,1.65 0 0,1 -1.65,1.65

	z"/>
    <path transform="matrix(1,0,0,1,38.3,6)" style="stroke:#0000ff;stroke-width:0.05mm;fill:none" d="
	M-1.65,-3.3
	L1.65,-3.3
	L1.65,1.65
	A1.65,1.65 0 0,1 -1.65,1.65

	z"/>
    <path transform="matrix(1,0,0,1,44.65,6)" style="stroke:#0000ff;stroke-width:0.05mm;fill:none" d="
	M-1.65,-3.3
	L1.65,-3.3
	L1.65,1.65
	A1.65,1.65 0 0,1 -1.65,1.65

	z"/>
    <path transform="matrix(1,0,0,1,51,6)" style="stroke:#0000ff;stroke-width:0.05mm;fill:none" d="
	M-1.65,-3.3
	L1.65,-3.3
	L1.65,1.65
	A1.65,1.65 0 0,1 -1.65,1.65

	z"/>
    <path transform="matrix(1,0,0,1,57.35,6)" style="stroke:#0000ff;stroke-width:0.05mm;fill:none" d="
	M-1.65,-3.3
	L1.65,-3.3
	L1.65,1.65
	A1.65,1.65 0 0,1 -1.65,1.65

	z"/>
    <path transform="matrix(1,0,0,1,63.7,6)" style="stroke:#0000ff;stroke-width:0.05mm;fill:none" d="
	M-1.65,-3.3
	L1.65,-3.3
	L1.65,1.65
	A1.65,1.65 0 0,1 -1.65,1.65

	z"/>
    <path transform="matrix(1,0,0,1,70.05,6)" style="stroke:#0000ff;stroke-width:0.05mm;fill:none" d="
	M-1.65,-3.3
	L1.65,-3.3
	L1.65,1.65
	A1.65,1.65 0 0,1 -1.65,1.65

	z"/>
    <path transform="matrix(1,0,0,1,76.4,6)" style="stroke:#0000ff;stroke-width:0.05mm;fill:none" d="
	M-1.65,-3.3
	L1.65,-3.3
	L1.65,1.65
	A1.65,1.65 0 0,1 -1.65,1.65

	z"/>
    <path transform="matrix(1,0,0,1,82.75,6)" style="stroke:#0000ff;stroke-width:0.05mm;fill:none" d="
	M-1.65,-3.3
	L1.65,-3.3
	L1.65,1.65
	A1.65,1.65 0 0,1 -1.65,1.65

	z"/>
    <path transform="matrix(1,0,0,1,89.1,6)" style="stroke:#0000ff;stroke-width:0.05mm;fill:none" d="
	M-1.65,-3.3
	L1.65,-3.3
	L1.65,1.65
	A1.65,1.65 0 0,1 -1.65,1.65

	z"/>
    <path transform="matrix(1,0,0,1,95.45,6)" style="stroke:#0000ff;stroke-width:0.05mm;fill:none" d="
	M-1.65,-3.3
	L1.65,-3.3
	L1.65,1.65
	A1.65,1.65 0 0,1 -1.65,1.65

	z"/>

</svg>
