<?xml version="1.0" encoding="UTF-8"?>
<svg xmlns="http://www.w3.org/2000/svg" xmlns:xlink="http://www.w3.org/1999/xlink" width="102.000mm" height="12.000mm" viewBox="0 0 102 12">

<!-- tape edge -->
    <path transform="matrix(1,0,0,1,0,0)" style="stroke:#0000ff;stroke-width:0.05mm;fill:none" d="
	M0,0
	L0,12
	L102,12
	L102,0
	L0,0
	z"/>

<!-- 15 sample holes, 1.1x strip hole size-->
    <path transform="matrix(1,0,0,1,6.55,6)" style="stroke:#0000ff;stroke-width:0.05mm;fill:none" d="
	M-1.65,-3.3
	L1.65,-3.3
	L1.65,1.65
	A1.65,1.65 0 0,1 -1.65,1.65

	z"/>
    <path transform="matrix(1,0,0,1,12.9,6)" style="stroke:#0000ff;stroke-width:0.05mm;fill:none" d="
	M-1.65,-3.3
	L1.65,-3.3
	L1.65,1.65
	A1.65,1.65 0 0,1 -1.65,1.65

	z"/>
    <path transform="matrix(1,0,0,1,19.25,6)" style="stroke:#0000ff;stroke-width:0.05mm;fill:none" d="
	M-1.65,-3.3
	L1.65,-3.3
	L1.65,1.65
	A1.65,1.65 0 0,1 -1.65,1.65

	z"/>
    <path transform="matrix(1,0,0,1,25.9,6)" style="stroke:#0000ff;stroke-width:0.05mm;fill:none" d="
	M-1.65,-3.3
	L1.65,-3.3
	L1.65,1.65
	A1.65,1.65 0 0,1 -1.65,1.65

	z"/>
    <path transform="matrix(1,0,0,1,32.25,6)" style="stroke:#0000ff;stroke-width:0.05mm;fill:none" d="
	M-1.65,-3.3
	L1.65,-3.3
	L1.65,1.65
	A1.65,1.65 0 0,1 -1.65,1.65

	z"/>
    <path transform="matrix(1,0,0,1,38.6,6)" style="stroke:#0000ff;stroke-width:0.05mm;fill:none" d="
	M-1.65,-3.3
	L1.65,-3.3
	L1.65,1.65
	A1.65,1.65 0 0,1 -1.65,1.65

	z"/>
    <path transform="matrix(1,0,0,1,44.95,6)" style="stroke:#0000ff;stroke-width:0.05mm;fill:none" d="
	M-1.65,-3.3
	L1.65,-3.3
	L1.65,1.65
	A1.65,1.65 0 0,1 -1.65,1.65

	z"/>
    <path transform="matrix(1,0,0,1,51.3,6)" style="stroke:#0000ff;stroke-width:0.05mm;fill:none" d="
	M-1.65,-3.3
	L1.65,-3.3
	L1.65,1.65
	A1.65,1.65 0 0,1 -1.65,1.65

	z"/>
    <path transform="matrix(1,0,0,1,57.65,6)" style="stroke:#0000ff;stroke-width:0.05mm;fill:none" d="
	M-1.65,-3.3
	L1.65,-3.3
	L1.65,1.65
	A1.65,1.65 0 0,1 -1.65,1.65

	z"/>
    <path transform="matrix(1,0,0,1,64,6)" style="stroke:#0000ff;stroke-width:0.05mm;fill:none" d="
	M-1.65,-3.3
	L1.65,-3.3
	L1.65,1.65
	A1.65,1.65 0 0,1 -1.65,1.65

	z"/>
    <path transform="matrix(1,0,0,1,70.35,6)" style="stroke:#0000ff;stroke-width:0.05mm;fill:none" d="
	M-1.65,-3.3
	L1.65,-3.3
	L1.65,1.65
	A1.65,1.65 0 0,1 -1.65,1.65

	z"/>
    <path transform="matrix(1,0,0,1,76.7,6)" style="stroke:#0000ff;stroke-width:0.05mm;fill:none" d="
	M-1.65,-3.3
	L1.65,-3.3
	L1.65,1.65
	A1.65,1.65 0 0,1 -1.65,1.65

	z"/>
    <path transform="matrix(1,0,0,1,83.05,6)" style="stroke:#0000ff;stroke-width:0.05mm;fill:none" d="
	M-1.65,-3.3
	L1.65,-3.3
	L1.65,1.65
	A1.65,1.65 0 0,1 -1.65,1.65

	z"/>
    <path transform="matrix(1,0,0,1,89.4,6)" style="stroke:#0000ff;stroke-width:0.05mm;fill:none" d="
	M-1.65,-3.3
	L1.65,-3.3
	L1.65,1.65
	A1.65,1.65 0 0,1 -1.65,1.65

	z"/>
    <path transform="matrix(1,0,0,1,95.75,6)" style="stroke:#0000ff;stroke-width:0.05mm;fill:none" d="
	M-1.65,-3.3
	L1.65,-3.3
	L1.65,1.65
	A1.65,1.65 0 0,1 -1.65,1.65

	z"/>

</svg>
