<?xml version="1.0" encoding="UTF-8"?>
<svg xmlns="http://www.w3.org/2000/svg" xmlns:xlink="http://www.w3.org/1999/xlink" width="102.000mm" height="12.000mm" viewBox="-110.263481 42.698029 101.999992 12.000000">
    <path transform="matrix(-1.33349,0,0,1.333951,-110.263481,42.698029)" style="stroke:#000000;stroke-width:0.05mm;fill:none" d="M0,0L-76.491035,0L-76.491035,8.995832L0,8.995832L0,0z"/>
    <path transform="matrix(-1.33349,0,0,1.333951,-110.263481,42.698029)" style="stroke:#004754;stroke-width:0.05mm;fill:none" d="M-3.33375,1.74625L-3.33375,2.54L-4.312708,3.33375L-4.312708,6.6675C-4.312708,6.985,-4.577292,7.249583,-4.894792,7.249583C-5.212292,7.249583,-5.476875,6.985,-5.476875,6.6675L-5.476875,3.33375L-6.455834,2.54L-6.455834,1.74625C-6.455833,1.74625,-3.33375,1.74625,-3.33375,1.74625z"/>
    <path transform="matrix(-1.33349,0,0,1.333951,-110.263481,42.698029)" style="stroke:#004754;stroke-width:0.05mm;fill:none" d="M-65.246246,1.74625L-65.246246,2.54L-66.225204,3.33375L-66.225204,6.6675C-66.225204,6.985,-66.489792,7.249583,-66.807289,7.249583C-67.124786,7.249583,-67.389374,6.985,-67.389374,6.6675L-67.389374,3.307292L-68.368332,2.513541L-68.368332,1.719792L-65.246246,1.74625z"/>
    <path transform="matrix(-1.33349,0,0,1.333951,-110.263481,42.698029)" style="stroke:#004754;stroke-width:0.05mm;fill:none" d="M-60.483749,1.74625L-60.483749,2.54L-61.462708,3.33375L-61.462708,6.6675C-61.462708,6.985,-61.727291,7.249583,-62.044788,7.249583C-62.362289,7.249583,-62.626869,6.985,-62.626869,6.6675L-62.626869,3.33375L-63.605827,2.54L-63.605827,1.74625C-63.605827,1.74625,-60.483749,1.74625,-60.483749,1.74625z"/>
    <path transform="matrix(-1.33349,0,0,1.333951,-110.263481,42.698029)" style="stroke:#004754;stroke-width:0.05mm;fill:none" d="M-55.721249,1.74625L-55.721249,2.54L-56.700207,3.33375L-56.700207,6.6675C-56.700207,6.985,-56.96479,7.249583,-57.282288,7.249583C-57.599789,7.249583,-57.864372,6.985,-57.864372,6.6675L-57.864372,3.33375L-58.84333,2.54L-58.84333,1.74625C-58.84333,1.74625,-55.721249,1.74625,-55.721249,1.74625z"/>
    <path transform="matrix(-1.33349,0,0,1.333951,-110.263481,42.698029)" style="stroke:#004754;stroke-width:0.05mm;fill:none" d="M-50.958748,1.74625L-50.958748,2.54L-51.937706,3.33375L-51.937706,6.6675C-51.937706,6.985,-52.20229,7.249583,-52.519791,7.249583C-52.837288,7.249583,-53.101871,6.985,-53.101871,6.6675L-53.101871,3.33375L-54.08083,2.54L-54.08083,1.74625C-54.08083,1.74625,-50.958748,1.74625,-50.958748,1.74625z"/>
    <path transform="matrix(-1.33349,0,0,1.333951,-110.263481,42.698029)" style="stroke:#004754;stroke-width:0.05mm;fill:none" d="M-46.196251,1.74625L-46.196251,2.54L-47.175205,3.33375L-47.175205,6.6675C-47.175205,6.985,-47.439789,7.249583,-47.75729,7.249583C-48.074787,7.249583,-48.339371,6.985,-48.339371,6.6675L-48.339371,3.307292L-49.318329,2.513541L-49.318329,1.719792L-46.196251,1.74625z"/>
    <path transform="matrix(-1.33349,0,0,1.333951,-110.263481,42.698029)" style="stroke:#004754;stroke-width:0.05mm;fill:none" d="M-41.43375,1.74625L-41.43375,2.54L-42.412708,3.33375L-42.412708,6.6675C-42.412708,6.985,-42.677292,7.249583,-42.994789,7.249583C-43.31229,7.249583,-43.576874,6.985,-43.576874,6.6675L-43.576874,3.307292L-44.555828,2.513541L-44.555828,1.719792L-41.43375,1.74625z"/>
    <path transform="matrix(-1.33349,0,0,1.333951,-110.263481,42.698029)" style="stroke:#004754;stroke-width:0.05mm;fill:none" d="M-36.671249,1.74625L-36.671249,2.54L-37.650208,3.33375L-37.650208,6.6675C-37.650208,6.985,-37.914791,7.249583,-38.232288,7.249583C-38.549789,7.249583,-38.814373,6.985,-38.814373,6.6675L-38.814373,3.33375L-39.793331,2.54L-39.793331,1.74625C-39.793331,1.74625,-36.671249,1.74625,-36.671249,1.74625z"/>
    <path transform="matrix(-1.33349,0,0,1.333951,-110.263481,42.698029)" style="stroke:#004754;stroke-width:0.05mm;fill:none" d="M-31.908749,1.74625L-31.908749,2.54L-32.887707,3.33375L-32.887707,6.6675C-32.887707,6.985,-33.15229,7.249583,-33.469788,7.249583C-33.787289,7.249583,-34.051872,6.985,-34.051872,6.6675L-34.051872,3.33375L-35.03083,2.54L-35.03083,1.74625C-35.03083,1.74625,-31.908749,1.74625,-31.908749,1.74625z"/>
    <path transform="matrix(-1.33349,0,0,1.333951,-110.263481,42.698029)" style="stroke:#004754;stroke-width:0.05mm;fill:none" d="M-27.146248,1.74625L-27.146248,2.54L-28.125206,3.33375L-28.125206,6.6675C-28.125206,6.985,-28.38979,7.249583,-28.707289,7.249583C-29.024788,7.249583,-29.289371,6.985,-29.289371,6.6675L-29.289371,3.33375L-30.268328,2.54L-30.268328,1.74625C-30.268332,1.74625,-27.146248,1.74625,-27.146248,1.74625z"/>
    <path transform="matrix(-1.33349,0,0,1.333951,-110.263481,42.698029)" style="stroke:#004754;stroke-width:0.05mm;fill:none" d="M-22.383749,1.74625L-22.383749,2.54L-23.362705,3.33375L-23.362705,6.6675C-23.362705,6.985,-23.627289,7.249583,-23.944788,7.249583C-24.262287,7.249583,-24.526871,6.985,-24.526871,6.6675L-24.526871,3.33375L-25.505829,2.54L-25.505829,1.74625C-25.505833,1.74625,-22.383749,1.74625,-22.383749,1.74625z"/>
    <path transform="matrix(-1.33349,0,0,1.333951,-110.263481,42.698029)" style="stroke:#004754;stroke-width:0.05mm;fill:none" d="M-17.621248,1.74625L-17.621248,2.54L-18.600206,3.33375L-18.600206,6.6675C-18.600206,6.985,-18.86479,7.249583,-19.182289,7.249583C-19.499788,7.249583,-19.764372,6.985,-19.764372,6.6675L-19.764372,3.33375L-20.743328,2.54L-20.743328,1.74625C-20.743332,1.74625,-17.621248,1.74625,-17.621248,1.74625z"/>
    <path transform="matrix(-1.33349,0,0,1.333951,-110.263481,42.698029)" style="stroke:#004754;stroke-width:0.05mm;fill:none" d="M-12.858749,1.74625L-12.858749,2.54L-13.837708,3.33375L-13.837708,6.6675C-13.837708,6.985,-14.102291,7.249583,-14.419791,7.249583C-14.737291,7.249583,-15.001874,6.985,-15.001874,6.6675L-15.001874,3.33375L-15.980833,2.54L-15.980833,1.74625C-15.980833,1.74625,-12.858749,1.74625,-12.858749,1.74625z"/>
    <path transform="matrix(-1.33349,0,0,1.333951,-110.263481,42.698029)" style="stroke:#004754;stroke-width:0.05mm;fill:none" d="M-8.09625,1.74625L-8.09625,2.54L-9.075208,3.33375L-9.075208,6.6675C-9.075208,6.985,-9.339791,7.249583,-9.657291,7.249583C-9.974792,7.249583,-10.239375,6.985,-10.239375,6.6675L-10.239375,3.33375L-11.218333,2.54L-11.218333,1.74625C-11.218333,1.74625,-8.09625,1.74625,-8.09625,1.74625z"/>
    <path transform="matrix(-1.33349,0,0,1.333951,-110.263481,42.698029)" style="stroke:#004754;stroke-width:0.05mm;fill:none" d="M-70.008751,1.74625L-70.008751,2.54L-70.987709,3.33375L-70.987709,6.6675C-70.987709,6.985,-71.252296,7.249583,-71.569794,7.249583C-71.887299,7.249583,-72.151886,6.985,-72.151886,6.6675L-72.151886,3.33375L-73.130844,2.54L-73.130844,1.74625C-73.130829,1.74625,-70.008751,1.74625,-70.008751,1.74625z"/>
</svg>
