<?xml version="1.0" encoding="UTF-8"?>
<svg xmlns="http://www.w3.org/2000/svg" xmlns:xlink="http://www.w3.org/1999/xlink" width="102.000mm" height="102.000mm" viewBox="-118.000000 14.500000 102.000000 102.000000">
    <rect transform="matrix(-1,0,0,1,-67,20)" style="stroke:#0000ff;stroke-width:0.05mm;fill:none" x="-51" y="-5.5" width="102" height="11"/>
    <rect transform="matrix(-1,0,0,1,-67,33)" style="stroke:#0000ff;stroke-width:0.05mm;fill:none" x="-51" y="-5.5" width="102" height="11"/>
    <rect transform="matrix(-1,0,0,1,-67,46)" style="stroke:#0000ff;stroke-width:0.05mm;fill:none" x="-51" y="-5.5" width="102" height="11"/>
    <rect transform="matrix(-1,0,0,1,-67,59)" style="stroke:#0000ff;stroke-width:0.05mm;fill:none" x="-51" y="-5.5" width="102" height="11"/>
    <rect transform="matrix(-1,0,0,1,-67,72)" style="stroke:#0000ff;stroke-width:0.05mm;fill:none" x="-51" y="-5.5" width="102" height="11"/>
    <rect transform="matrix(-1,0,0,1,-67,85)" style="stroke:#0000ff;stroke-width:0.05mm;fill:none" x="-51" y="-5.5" width="102" height="11"/>
    <rect transform="matrix(-1,0,0,1,-67,98)" style="stroke:#0000ff;stroke-width:0.05mm;fill:none" x="-51" y="-5.5" width="102" height="11"/>
    <rect transform="matrix(-1,0,0,1,-67,111)" style="stroke:#0000ff;stroke-width:0.05mm;fill:none" x="-51" y="-5.5" width="102" height="11"/>
    <rect transform="matrix(-1,0,0,1,-28,20)" style="stroke:#0000ff;stroke-width:0.05mm;fill:none" x="-4" y="-3" width="8" height="6" rx="1"/>
    <rect transform="matrix(-1,0,0,1,-41,20)" style="stroke:#0000ff;stroke-width:0.05mm;fill:none" x="-4" y="-3" width="8" height="6" rx="1"/>
    <rect transform="matrix(-1,0,0,1,-54,20)" style="stroke:#0000ff;stroke-width:0.05mm;fill:none" x="-4" y="-3" width="8" height="6" rx="1"/>
    <rect transform="matrix(-1,0,0,1,-67,20)" style="stroke:#0000ff;stroke-width:0.05mm;fill:none" x="-4" y="-3" width="8" height="6" rx="1"/>
    <rect transform="matrix(-1,0,0,1,-80,20)" style="stroke:#0000ff;stroke-width:0.05mm;fill:none" x="-4" y="-3" width="8" height="6" rx="1"/>
    <rect transform="matrix(-1,0,0,1,-93,20)" style="stroke:#0000ff;stroke-width:0.05mm;fill:none" x="-4" y="-3" width="8" height="6" rx="1"/>
    <rect transform="matrix(-1,0,0,1,-106,20)" style="stroke:#0000ff;stroke-width:0.05mm;fill:none" x="-4" y="-3" width="8" height="6" rx="1"/>
    <rect transform="matrix(-1,0,0,1,-28,33)" style="stroke:#0000ff;stroke-width:0.05mm;fill:none" x="-4" y="-3" width="8" height="6" rx="1"/>
    <rect transform="matrix(-1,0,0,1,-41,33)" style="stroke:#0000ff;stroke-width:0.05mm;fill:none" x="-4" y="-3" width="8" height="6" rx="1"/>
    <rect transform="matrix(-1,0,0,1,-54,33)" style="stroke:#0000ff;stroke-width:0.05mm;fill:none" x="-4" y="-3" width="8" height="6" rx="1"/>
    <rect transform="matrix(-1,0,0,1,-67,33)" style="stroke:#0000ff;stroke-width:0.05mm;fill:none" x="-4" y="-3" width="8" height="6" rx="1"/>
    <rect transform="matrix(-1,0,0,1,-80,33)" style="stroke:#0000ff;stroke-width:0.05mm;fill:none" x="-4" y="-3" width="8" height="6" rx="1"/>
    <rect transform="matrix(-1,0,0,1,-93,33)" style="stroke:#0000ff;stroke-width:0.05mm;fill:none" x="-4" y="-3" width="8" height="6" rx="1"/>
    <rect transform="matrix(-1,0,0,1,-106,33)" style="stroke:#0000ff;stroke-width:0.05mm;fill:none" x="-4" y="-3" width="8" height="6" rx="1"/>
    <rect transform="matrix(-1,0,0,1,-28,46)" style="stroke:#0000ff;stroke-width:0.05mm;fill:none" x="-4" y="-3" width="8" height="6" rx="1"/>
    <rect transform="matrix(-1,0,0,1,-41,46)" style="stroke:#0000ff;stroke-width:0.05mm;fill:none" x="-4" y="-3" width="8" height="6" rx="1"/>
    <rect transform="matrix(-1,0,0,1,-54,46)" style="stroke:#0000ff;stroke-width:0.05mm;fill:none" x="-4" y="-3" width="8" height="6" rx="1"/>
    <rect transform="matrix(-1,0,0,1,-67,46)" style="stroke:#0000ff;stroke-width:0.05mm;fill:none" x="-4" y="-3" width="8" height="6" rx="1"/>
    <rect transform="matrix(-1,0,0,1,-80,46)" style="stroke:#0000ff;stroke-width:0.05mm;fill:none" x="-4" y="-3" width="8" height="6" rx="1"/>
    <rect transform="matrix(-1,0,0,1,-93,46)" style="stroke:#0000ff;stroke-width:0.05mm;fill:none" x="-4" y="-3" width="8" height="6" rx="1"/>
    <rect transform="matrix(-1,0,0,1,-106,46)" style="stroke:#0000ff;stroke-width:0.05mm;fill:none" x="-4" y="-3" width="8" height="6" rx="1"/>
    <rect transform="matrix(-1,0,0,1,-28,59)" style="stroke:#0000ff;stroke-width:0.05mm;fill:none" x="-4" y="-3" width="8" height="6" rx="1"/>
    <rect transform="matrix(-1,0,0,1,-41,59)" style="stroke:#0000ff;stroke-width:0.05mm;fill:none" x="-4" y="-3" width="8" height="6" rx="1"/>
    <rect transform="matrix(-1,0,0,1,-54,59)" style="stroke:#0000ff;stroke-width:0.05mm;fill:none" x="-4" y="-3" width="8" height="6" rx="1"/>
    <rect transform="matrix(-1,0,0,1,-67,59)" style="stroke:#0000ff;stroke-width:0.05mm;fill:none" x="-4" y="-3" width="8" height="6" rx="1"/>
    <rect transform="matrix(-1,0,0,1,-80,59)" style="stroke:#0000ff;stroke-width:0.05mm;fill:none" x="-4" y="-3" width="8" height="6" rx="1"/>
    <rect transform="matrix(-1,0,0,1,-93,59)" style="stroke:#0000ff;stroke-width:0.05mm;fill:none" x="-4" y="-3" width="8" height="6" rx="1"/>
    <rect transform="matrix(-1,0,0,1,-106,59)" style="stroke:#0000ff;stroke-width:0.05mm;fill:none" x="-4" y="-3" width="8" height="6" rx="1"/>
    <rect transform="matrix(-1,0,0,1,-28,72)" style="stroke:#0000ff;stroke-width:0.05mm;fill:none" x="-4" y="-3" width="8" height="6" rx="1"/>
    <rect transform="matrix(-1,0,0,1,-41,72)" style="stroke:#0000ff;stroke-width:0.05mm;fill:none" x="-4" y="-3" width="8" height="6" rx="1"/>
    <rect transform="matrix(-1,0,0,1,-54,72)" style="stroke:#0000ff;stroke-width:0.05mm;fill:none" x="-4" y="-3" width="8" height="6" rx="1"/>
    <rect transform="matrix(-1,0,0,1,-67,72)" style="stroke:#0000ff;stroke-width:0.05mm;fill:none" x="-4" y="-3" width="8" height="6" rx="1"/>
    <rect transform="matrix(-1,0,0,1,-80,72)" style="stroke:#0000ff;stroke-width:0.05mm;fill:none" x="-4" y="-3" width="8" height="6" rx="1"/>
    <rect transform="matrix(-1,0,0,1,-93,72)" style="stroke:#0000ff;stroke-width:0.05mm;fill:none" x="-4" y="-3" width="8" height="6" rx="1"/>
    <rect transform="matrix(-1,0,0,1,-106,72)" style="stroke:#0000ff;stroke-width:0.05mm;fill:none" x="-4" y="-3" width="8" height="6" rx="1"/>
    <rect transform="matrix(-1,0,0,1,-28,85)" style="stroke:#0000ff;stroke-width:0.05mm;fill:none" x="-4" y="-3" width="8" height="6" rx="1"/>
    <rect transform="matrix(-1,0,0,1,-41,85)" style="stroke:#0000ff;stroke-width:0.05mm;fill:none" x="-4" y="-3" width="8" height="6" rx="1"/>
    <rect transform="matrix(-1,0,0,1,-54,85)" style="stroke:#0000ff;stroke-width:0.05mm;fill:none" x="-4" y="-3" width="8" height="6" rx="1"/>
    <rect transform="matrix(-1,0,0,1,-67,85)" style="stroke:#0000ff;stroke-width:0.05mm;fill:none" x="-4" y="-3" width="8" height="6" rx="1"/>
    <rect transform="matrix(-1,0,0,1,-80,85)" style="stroke:#0000ff;stroke-width:0.05mm;fill:none" x="-4" y="-3" width="8" height="6" rx="1"/>
    <rect transform="matrix(-1,0,0,1,-93,85)" style="stroke:#0000ff;stroke-width:0.05mm;fill:none" x="-4" y="-3" width="8" height="6" rx="1"/>
    <rect transform="matrix(-1,0,0,1,-106,85)" style="stroke:#0000ff;stroke-width:0.05mm;fill:none" x="-4" y="-3" width="8" height="6" rx="1"/>
    <rect transform="matrix(-1,0,0,1,-28,98)" style="stroke:#0000ff;stroke-width:0.05mm;fill:none" x="-4" y="-3" width="8" height="6" rx="1"/>
    <rect transform="matrix(-1,0,0,1,-41,98)" style="stroke:#0000ff;stroke-width:0.05mm;fill:none" x="-4" y="-3" width="8" height="6" rx="1"/>
    <rect transform="matrix(-1,0,0,1,-54,98)" style="stroke:#0000ff;stroke-width:0.05mm;fill:none" x="-4" y="-3" width="8" height="6" rx="1"/>
    <rect transform="matrix(-1,0,0,1,-67,98)" style="stroke:#0000ff;stroke-width:0.05mm;fill:none" x="-4" y="-3" width="8" height="6" rx="1"/>
    <rect transform="matrix(-1,0,0,1,-80,98)" style="stroke:#0000ff;stroke-width:0.05mm;fill:none" x="-4" y="-3" width="8" height="6" rx="1"/>
    <rect transform="matrix(-1,0,0,1,-93,98)" style="stroke:#0000ff;stroke-width:0.05mm;fill:none" x="-4" y="-3" width="8" height="6" rx="1"/>
    <rect transform="matrix(-1,0,0,1,-106,98)" style="stroke:#0000ff;stroke-width:0.05mm;fill:none" x="-4" y="-3" width="8" height="6" rx="1"/>
    <rect transform="matrix(-1,0,0,1,-28,111)" style="stroke:#0000ff;stroke-width:0.05mm;fill:none" x="-4" y="-3" width="8" height="6" rx="1"/>
    <rect transform="matrix(-1,0,0,1,-41,111)" style="stroke:#0000ff;stroke-width:0.05mm;fill:none" x="-4" y="-3" width="8" height="6" rx="1"/>
    <rect transform="matrix(-1,0,0,1,-54,111)" style="stroke:#0000ff;stroke-width:0.05mm;fill:none" x="-4" y="-3" width="8" height="6" rx="1"/>
    <rect transform="matrix(-1,0,0,1,-67,111)" style="stroke:#0000ff;stroke-width:0.05mm;fill:none" x="-4" y="-3" width="8" height="6" rx="1"/>
    <rect transform="matrix(-1,0,0,1,-80,111)" style="stroke:#0000ff;stroke-width:0.05mm;fill:none" x="-4" y="-3" width="8" height="6" rx="1"/>
    <rect transform="matrix(-1,0,0,1,-93,111)" style="stroke:#0000ff;stroke-width:0.05mm;fill:none" x="-4" y="-3" width="8" height="6" rx="1"/>
    <rect transform="matrix(-1,0,0,1,-106,111)" style="stroke:#0000ff;stroke-width:0.05mm;fill:none" x="-4" y="-3" width="8" height="6" rx="1"/>
</svg>
