<?xml version="1.0" encoding="UTF-8"?>
<svg xmlns="http://www.w3.org/2000/svg" xmlns:xlink="http://www.w3.org/1999/xlink" width="105mm" height="14mm" viewBox="0 0 105 14">

<!-- outline, cut corner to signify cell 15 facing beamline door -->
    <path transform="matrix(1,0,0,1,0,0)" style="stroke:#000000;stroke-width:0.05mm;fill:none" d="
	M0,3
	L0,14
	L105,14
	L105,0

	h-5.5

	v8.5
	a1.5,1.5 0 0,1 -3,0
	v-8.5
	h-3.5

	v8.5
	a1.5,1.5 0 0,1 -3,0
	v-8.5
	h-3.5

	v8.5
	a1.5,1.5 0 0,1 -3,0
	v-8.5
	h-3.5

	v8.5
	a1.5,1.5 0 0,1 -3,0
	v-8.5
	h-3.5

	v8.5
	a1.5,1.5 0 0,1 -3,0
	v-8.5
	h-3.5

	v8.5
	a1.5,1.5 0 0,1 -3,0
	v-8.5
	h-3.5

	v8.5
	a1.5,1.5 0 0,1 -3,0
	v-8.5
	h-3.5

	v8.5
	a1.5,1.5 0 0,1 -3,0
	v-8.5
	h-3.5

	v8.5
	a1.5,1.5 0 0,1 -3,0
	v-8.5
	h-3.5

	v8.5
	a1.5,1.5 0 0,1 -3,0
	v-8.5
	h-3.5

	v8.5
	a1.5,1.5 0 0,1 -3,0
	v-8.5
	h-3.5

	v8.5
	a1.5,1.5 0 0,1 -3,0
	v-8.5
	h-3.5

	v8.5
	a1.5,1.5 0 0,1 -3,0
	v-8.5
	h-3.5

	v8.5
	a1.5,1.5 0 0,1 -3,0
	v-8.5
	h-3.5

	v8.5
	a1.5,1.5 0 0,1 -3,0
	v-8.5
	h-3.5

	L3,0

	z"/>

</svg>
