<?xml version="1.0" encoding="UTF-8"?>
<svg xmlns="http://www.w3.org/2000/svg" xmlns:xlink="http://www.w3.org/1999/xlink" width="109.200mm" height="25.400mm" viewBox="-112.600060 4.650109 109.199982 25.399998">
    <path transform="matrix(-1.05557,0,0,1.05557,2.50333,3.33108)" style="stroke:#000000;stroke-width:0.05mm;fill:none" d="M104.544281,22.944103C104.544281,23.441162,104.94722,23.844105,105.44429,23.844105C105.941353,23.844105,106.344269,23.441162,106.344269,22.944103C106.344269,22.447048,105.941353,22.044102,105.44429,22.044102C104.94722,22.044102,104.544281,22.447048,104.544281,22.944103z"/>
    <path transform="matrix(-1.05555,0,0,1.05555,1.0909,3.33139)" style="stroke:#000000;stroke-width:0.05mm;fill:none" d="M79.144287,22.944103C79.144287,23.441162,79.547226,23.844105,80.044281,23.844105C80.541336,23.844105,80.94429,23.441162,80.94429,22.944103C80.94429,22.447048,80.541336,22.044102,80.044281,22.044102C79.547226,22.044102,79.144287,22.447048,79.144287,22.944103z"/>
    <path transform="matrix(-1.05556,0,0,1.05556,-0.319664,3.33118)" style="stroke:#000000;stroke-width:0.05mm;fill:none" d="M53.744278,22.944103C53.744278,23.441162,54.147217,23.844105,54.644272,23.844105C55.141327,23.844105,55.544266,23.441162,55.544266,22.944103C55.544266,22.447048,55.141327,22.044102,54.644272,22.044102C54.147217,22.044102,53.744278,22.447048,53.744278,22.944103z"/>
    <path transform="matrix(-1.05556,0,0,1.05556,-1.731,3.33124)" style="stroke:#000000;stroke-width:0.05mm;fill:none" d="M28.344276,22.944103C28.344276,23.441162,28.747223,23.844105,29.24427,23.844105C29.741333,23.844105,30.144272,23.441162,30.144272,22.944103C30.144272,22.447048,29.741333,22.044102,29.24427,22.044102C28.747223,22.044102,28.344276,22.447048,28.344276,22.944103z"/>
    <path transform="matrix(-1.05555,0,0,1.05555,-3.14224,3.33136)" style="stroke:#000000;stroke-width:0.05mm;fill:none" d="M2.944252,22.944103C2.944252,23.441162,3.347198,23.844105,3.844261,23.844105C4.341309,23.844105,4.744255,23.441162,4.744255,22.944103C4.744255,22.447048,4.341309,22.044102,3.844261,22.044102C3.347198,22.044102,2.944252,22.447048,2.944252,22.944103z"/>
    <path transform="matrix(-1.05557,0,0,1.05557,2.50333,4.46463)" style="stroke:#000000;stroke-width:0.05mm;fill:none" d="M104.544281,2.544106C104.544281,3.041164,104.94722,3.444107,105.44429,3.444107C105.941353,3.444107,106.344269,3.041164,106.344269,2.544106C106.344269,2.04705,105.941353,1.644108,105.44429,1.644108C104.94722,1.644108,104.544281,2.04705,104.544281,2.544106z"/>
    <path transform="matrix(-1.05556,0,0,1.05556,-0.319664,4.46464)" style="stroke:#000000;stroke-width:0.05mm;fill:none" d="M53.744278,2.544106C53.744278,3.041164,54.147217,3.444107,54.644272,3.444107C55.141327,3.444107,55.544266,3.041164,55.544266,2.544106C55.544266,2.04705,55.141327,1.644108,54.644272,1.644108C54.147217,1.644108,53.744278,2.04705,53.744278,2.544106z"/>
    <path transform="matrix(-1.05555,0,0,1.05555,-3.14224,4.46466)" style="stroke:#000000;stroke-width:0.05mm;fill:none" d="M2.944252,2.544106C2.944252,3.041164,3.347198,3.444107,3.844261,3.444107C4.341309,3.444107,4.744255,3.041164,4.744255,2.544106C4.744255,2.04705,4.341309,1.644108,3.844261,1.644108C3.347198,1.644108,2.944252,2.04705,2.944252,2.544106z"/>
    <path transform="matrix(-1,0,0,1,-3.3558,4.606)" style="stroke:#000000;stroke-width:0.05mm;fill:none" d="M54.688171,9.744373L56.144226,9.744373L56.144226,14.244373L56.113464,14.546131C55.946289,15.357533,55.153259,15.879963,54.341736,15.713367C53.644318,15.569916,53.143875,14.95591,53.143982,14.243889L53.143982,11.243889L53.144226,9.744373L54.675964,9.744373L54.684036,9.743889L54.688171,9.744373z"/>
    <path transform="matrix(-1,0,0,1,-3.3558,4.606)" style="stroke:#000000;stroke-width:0.05mm;fill:none" d="M8.693947,0.044109L8.693947,14.243889C8.694221,15.072304,9.365807,15.743881,10.194244,15.743881C11.022659,15.743881,11.694237,15.072304,11.694237,14.243889L11.694168,7.044113L15.043945,7.044113L15.043945,14.243889C15.044228,15.072304,15.715805,15.743881,16.544243,15.743881C17.372658,15.743881,18.044235,15.072304,18.044235,14.243889L18.044174,7.044113L21.393967,7.044113L21.393967,14.243889C21.394249,15.072304,22.065826,15.743881,22.894264,15.743881C23.722679,15.743881,24.394257,15.072304,24.394257,14.243889L24.394196,7.044113L27.743965,7.044113L27.743965,14.243889C27.744247,15.072304,28.415825,15.743881,29.244263,15.743881C30.072678,15.743881,30.744255,15.072304,30.744255,14.243889L30.744194,7.044113L34.093964,7.044113L34.093964,14.243889C34.094246,15.072304,34.765823,15.743881,35.594261,15.743881C36.422676,15.743881,37.094261,15.072304,37.094261,14.243889L37.094193,7.044113L40.44397,7.044113L40.44397,14.243889C40.444244,15.072304,41.115822,15.743881,41.94426,15.743881C42.772682,15.743881,43.44426,15.072304,43.44426,14.243889L43.444191,7.044113L46.793968,7.044113L46.793968,14.243889C46.79425,15.072304,47.465828,15.743881,48.294266,15.743881C49.122681,15.743881,49.794258,15.072304,49.794258,14.243889L49.794189,7.044113L49.794388,0.044109L59.493973,0.044109L59.493973,7.044113L59.493973,14.243889C59.494247,15.072304,60.165833,15.743881,60.994263,15.743881C61.822678,15.743881,62.494263,15.072304,62.494263,14.243889L62.494186,7.044113L65.843964,7.044113L65.843964,14.243889C65.844254,15.072304,66.515823,15.743881,67.344269,15.743881C68.172684,15.743881,68.844254,15.072304,68.844254,14.243889L68.844193,7.044113L72.19397,7.044113L72.19397,14.243889C72.194244,15.072304,72.865829,15.743881,73.69426,15.743881C74.522675,15.743881,75.19426,15.072304,75.19426,14.243889L75.194199,7.044113L78.543961,7.044113L78.543961,14.243889C78.54425,15.072304,79.21582,15.743881,80.044266,15.743881C80.872681,15.743881,81.54425,15.072304,81.54425,14.243889L81.544189,7.044113L84.893982,7.044113L84.893982,14.243889C84.894272,15.072304,85.565842,15.743881,86.394287,15.743881C87.222702,15.743881,87.894272,15.072304,87.894272,14.243889L87.894211,7.044113L91.243988,7.044113L91.243988,14.243889C91.244263,15.072304,91.915848,15.743881,92.744278,15.743881C93.572708,15.743881,94.244278,15.072304,94.244278,14.243889L94.244217,7.044113L97.593994,7.044113L97.593994,14.243889C97.594269,15.072304,98.265854,15.743881,99.094284,15.743881C99.922699,15.743881,100.594276,15.072304,100.594276,14.243889L100.594208,7.044113L100.594208,0.044109L105.628281,0.044109L109.244263,3.660103L109.244263,25.444107L0.044281,25.444107L0.044281,0.044109L8.693947,0.044109z"/>
</svg>
