<?xml version="1.0" encoding="UTF-8"?>
<svg xmlns="http://www.w3.org/2000/svg" xmlns:xlink="http://www.w3.org/1999/xlink" width="109.200mm" height="25.400mm" viewBox="0 0 109.2 25.4">

<!-- outline, cut corner to signify cell 15 facing beamline door -->
    <path transform="matrix(1,0,0,1,0,0)" style="stroke:#000000;stroke-width:0.05mm;fill:none" d="
	M0,3
	L0,25.4
	L109.2,25.4
	L109.2,0

	h-8.65
	v14.2

	a1.5,1.5 0 0,1 -3,0
	v-7.2
	h-3.35

	v7.2
	a1.5,1.5 0 0,1 -3,0
	v-7.2
	h-3.35

	v7.2
	a1.5,1.5 0 0,1 -3,0
	v-7.2
	h-3.35

	v7.2
	a1.5,1.5 0 0,1 -3,0
	v-7.2
	h-3.35

	v7.2
	a1.5,1.5 0 0,1 -3,0
	v-7.2
	h-3.35

	v7.2
	a1.5,1.5 0 0,1 -3,0
	v-7.2
	h-3.35

	v7.2
	a1.5,1.5 0 0,1 -3,0

	v-14.2
	h-9.7
	v14.2

	a1.5,1.5 0 0,1 -3,0
	v-7.2
	h-3.35

	v7.2
	a1.5,1.5 0 0,1 -3,0
	v-7.2
	h-3.35

	v7.2
	a1.5,1.5 0 0,1 -3,0
	v-7.2
	h-3.35

	v7.2
	a1.5,1.5 0 0,1 -3,0
	v-7.2
	h-3.35

	v7.2
	a1.5,1.5 0 0,1 -3,0
	v-7.2
	h-3.35

	v7.2
	a1.5,1.5 0 0,1 -3,0
	v-7.2
	h-3.35

	v7.2
	a1.5,1.5 0 0,1 -3,0

	v-14.2

	L3,0

	z"/>

<!-- screw holes, corner screw is offset from edge by (3.8,2.5). -->
    <circle transform="matrix(1,0,0,1,3.8,22.9)" style="stroke:#000000;stroke-width:0.05mm;fill:none" r="1" cx="0" cy="0"/>
    <circle transform="matrix(1,0,0,1,29.2,22.9)" style="stroke:#000000;stroke-width:0.05mm;fill:none" r="1" cx="0" cy="0"/>
    <circle transform="matrix(1,0,0,1,54.6,22.9)" style="stroke:#000000;stroke-width:0.05mm;fill:none" r="1" cx="0" cy="0"/>
    <circle transform="matrix(1,0,0,1,80,22.9)" style="stroke:#000000;stroke-width:0.05mm;fill:none" r="1" cx="0" cy="0"/>
    <circle transform="matrix(1,0,0,1,105.4,22.9)" style="stroke:#000000;stroke-width:0.05mm;fill:none" r="1" cx="0" cy="0"/>
    <circle transform="matrix(1,0,0,1,105.4,2.5)" style="stroke:#000000;stroke-width:0.05mm;fill:none" r="1" cx="0" cy="0"/>
    <circle transform="matrix(1,0,0,1,54.6,2.5)" style="stroke:#000000;stroke-width:0.05mm;fill:none" r="1" cx="0" cy="0"/>
    <circle transform="matrix(1,0,0,1,3.8,2.5)" style="stroke:#000000;stroke-width:0.05mm;fill:none" r="1" cx="0" cy="0"/>

<!-- middle hole -->
    <path transform="matrix(1,0,0,1,54.6,12.7)" style="stroke:#000000;stroke-width:0.05mm;fill:none" d="
	M-1.5,-3
	L1.5,-3
	L1.5,1.5
	A1.5,1.5 0 0,1 -1.5,1.5

	z"/>
</svg>
