<?xml version="1.0" encoding="UTF-8"?>
<svg xmlns="http://www.w3.org/2000/svg" xmlns:xlink="http://www.w3.org/1999/xlink" width="105.000mm" height="62.000mm" viewBox="-116.500000 9.000000 105.000000 62.000000">
    <path transform="matrix(-1,0,0,1,-3.996,2)" style="stroke:#000000;stroke-width:0.05mm;fill:none" d="M112.503998,10.576L112.503998,21L7.504,21L7.504,7L108.928001,7L112.503998,10.576z"/>
    <path transform="matrix(-1,0,0,1,-3.996,18)" style="stroke:#000000;stroke-width:0.05mm;fill:none" d="M112.503998,10.576L112.503998,21L7.504,21L7.504,7L108.928001,7L112.503998,10.576z"/>
    <path transform="matrix(-1,0,0,1,-3.996,34)" style="stroke:#000000;stroke-width:0.05mm;fill:none" d="M112.503998,10.576L112.503998,21L7.504,21L7.504,7L108.928001,7L112.503998,10.576z"/>
    <path transform="matrix(-1,0,0,1,-3.996,50)" style="stroke:#000000;stroke-width:0.05mm;fill:none" d="M112.503998,10.576L112.503998,21L7.504,21L7.504,7L108.928001,7L112.503998,10.576z"/>
    <rect transform="matrix(-1,0,0,1,-25,16)" style="stroke:#000000;stroke-width:0.05mm;fill:none" x="-4" y="-3" width="8" height="6" rx="1"/>
    <rect transform="matrix(-1,0,0,1,-38,16)" style="stroke:#000000;stroke-width:0.05mm;fill:none" x="-4" y="-3" width="8" height="6" rx="1"/>
    <rect transform="matrix(-1,0,0,1,-51,16)" style="stroke:#000000;stroke-width:0.05mm;fill:none" x="-4" y="-3" width="8" height="6" rx="1"/>
    <rect transform="matrix(-1,0,0,1,-64,16)" style="stroke:#000000;stroke-width:0.05mm;fill:none" x="-4" y="-3" width="8" height="6" rx="1"/>
    <rect transform="matrix(-1,0,0,1,-77,16)" style="stroke:#000000;stroke-width:0.05mm;fill:none" x="-4" y="-3" width="8" height="6" rx="1"/>
    <rect transform="matrix(-1,0,0,1,-90,16)" style="stroke:#000000;stroke-width:0.05mm;fill:none" x="-4" y="-3" width="8" height="6" rx="1"/>
    <rect transform="matrix(-1,0,0,1,-103,16)" style="stroke:#000000;stroke-width:0.05mm;fill:none" x="-4" y="-3" width="8" height="6" rx="1"/>
    <rect transform="matrix(-1,0,0,1,-25,32)" style="stroke:#000000;stroke-width:0.05mm;fill:none" x="-4" y="-3" width="8" height="6" rx="1"/>
    <rect transform="matrix(-1,0,0,1,-38,32)" style="stroke:#000000;stroke-width:0.05mm;fill:none" x="-4" y="-3" width="8" height="6" rx="1"/>
    <rect transform="matrix(-1,0,0,1,-51,32)" style="stroke:#000000;stroke-width:0.05mm;fill:none" x="-4" y="-3" width="8" height="6" rx="1"/>
    <rect transform="matrix(-1,0,0,1,-64,32)" style="stroke:#000000;stroke-width:0.05mm;fill:none" x="-4" y="-3" width="8" height="6" rx="1"/>
    <rect transform="matrix(-1,0,0,1,-77,32)" style="stroke:#000000;stroke-width:0.05mm;fill:none" x="-4" y="-3" width="8" height="6" rx="1"/>
    <rect transform="matrix(-1,0,0,1,-90,32)" style="stroke:#000000;stroke-width:0.05mm;fill:none" x="-4" y="-3" width="8" height="6" rx="1"/>
    <rect transform="matrix(-1,0,0,1,-103,32)" style="stroke:#000000;stroke-width:0.05mm;fill:none" x="-4" y="-3" width="8" height="6" rx="1"/>
    <rect transform="matrix(-1,0,0,1,-25,48)" style="stroke:#000000;stroke-width:0.05mm;fill:none" x="-4" y="-3" width="8" height="6" rx="1"/>
    <rect transform="matrix(-1,0,0,1,-38,48)" style="stroke:#000000;stroke-width:0.05mm;fill:none" x="-4" y="-3" width="8" height="6" rx="1"/>
    <rect transform="matrix(-1,0,0,1,-51,48)" style="stroke:#000000;stroke-width:0.05mm;fill:none" x="-4" y="-3" width="8" height="6" rx="1"/>
    <rect transform="matrix(-1,0,0,1,-64,48)" style="stroke:#000000;stroke-width:0.05mm;fill:none" x="-4" y="-3" width="8" height="6" rx="1"/>
    <rect transform="matrix(-1,0,0,1,-77,48)" style="stroke:#000000;stroke-width:0.05mm;fill:none" x="-4" y="-3" width="8" height="6" rx="1"/>
    <rect transform="matrix(-1,0,0,1,-90,48)" style="stroke:#000000;stroke-width:0.05mm;fill:none" x="-4" y="-3" width="8" height="6" rx="1"/>
    <rect transform="matrix(-1,0,0,1,-103,48)" style="stroke:#000000;stroke-width:0.05mm;fill:none" x="-4" y="-3" width="8" height="6" rx="1"/>
    <rect transform="matrix(-1,0,0,1,-25,64)" style="stroke:#000000;stroke-width:0.05mm;fill:none" x="-4" y="-3" width="8" height="6" rx="1"/>
    <rect transform="matrix(-1,0,0,1,-38,64)" style="stroke:#000000;stroke-width:0.05mm;fill:none" x="-4" y="-3" width="8" height="6" rx="1"/>
    <rect transform="matrix(-1,0,0,1,-51,64)" style="stroke:#000000;stroke-width:0.05mm;fill:none" x="-4" y="-3" width="8" height="6" rx="1"/>
    <rect transform="matrix(-1,0,0,1,-64,64)" style="stroke:#000000;stroke-width:0.05mm;fill:none" x="-4" y="-3" width="8" height="6" rx="1"/>
    <rect transform="matrix(-1,0,0,1,-77,64)" style="stroke:#000000;stroke-width:0.05mm;fill:none" x="-4" y="-3" width="8" height="6" rx="1"/>
    <rect transform="matrix(-1,0,0,1,-90,64)" style="stroke:#000000;stroke-width:0.05mm;fill:none" x="-4" y="-3" width="8" height="6" rx="1"/>
    <rect transform="matrix(-1,0,0,1,-103,64)" style="stroke:#000000;stroke-width:0.05mm;fill:none" x="-4" y="-3" width="8" height="6" rx="1"/>
</svg>
