<?xml version="1.0" encoding="UTF-8"?>
<svg xmlns="http://www.w3.org/2000/svg" xmlns:xlink="http://www.w3.org/1999/xlink" width="109.200mm" height="25.400mm" viewBox="0 0 109.2 25.4">
<!-- outlines -->
    <rect transform="matrix(1,0,0,1,54.6,12.7)" style="stroke:#000000;stroke-width:0.05mm;fill:none" x="-54.6" y="-12.7" width="109.2" height="25.4"/>
    <rect transform="matrix(1,0,0,1,54.6,12.7)" style="stroke:#000000;stroke-width:0.05mm;fill:none" x="-52" y="-7" width="104" height="14"/>

<!-- screw holes, corner screw is offset from edge by (3.8,2.5). -->
    <circle transform="matrix(1,0,0,1,3.8,22.9)" style="stroke:#000000;stroke-width:0.05mm;fill:none" r="1" cx="0" cy="0"/>
    <circle transform="matrix(1,0,0,1,29.2,22.9)" style="stroke:#000000;stroke-width:0.05mm;fill:none" r="1" cx="0" cy="0"/>
    <circle transform="matrix(1,0,0,1,54.6,22.9)" style="stroke:#000000;stroke-width:0.05mm;fill:none" r="1" cx="0" cy="0"/>
    <circle transform="matrix(1,0,0,1,80,22.9)" style="stroke:#000000;stroke-width:0.05mm;fill:none" r="1" cx="0" cy="0"/>
    <circle transform="matrix(1,0,0,1,105.4,22.9)" style="stroke:#000000;stroke-width:0.05mm;fill:none" r="1" cx="0" cy="0"/>
    <circle transform="matrix(1,0,0,1,105.4,2.5)" style="stroke:#000000;stroke-width:0.05mm;fill:none" r="1" cx="0" cy="0"/>
    <circle transform="matrix(1,0,0,1,80,2.5)" style="stroke:#000000;stroke-width:0.05mm;fill:none" r="1" cx="0" cy="0"/>
    <circle transform="matrix(1,0,0,1,54.6,2.5)" style="stroke:#000000;stroke-width:0.05mm;fill:none" r="1" cx="0" cy="0"/>
    <circle transform="matrix(1,0,0,1,29.2,2.5)" style="stroke:#000000;stroke-width:0.05mm;fill:none" r="1" cx="0" cy="0"/>
    <circle transform="matrix(1,0,0,1,3.8,2.5)" style="stroke:#000000;stroke-width:0.05mm;fill:none" r="1" cx="0" cy="0"/>

</svg>
