<?xml version="1.0" encoding="utf-8"?>
<!-- Generator: Adobe Illustrator 28.1.0, SVG Export Plug-In . SVG Version: 6.00 Build 0)  -->
<svg version="1.1" id="Layer_1" xmlns="http://www.w3.org/2000/svg" xmlns:xlink="http://www.w3.org/1999/xlink" x="0px" y="0px"
	 viewBox="0 0 309.5 72" style="enable-background:new 0 0 309.5 72;" xml:space="preserve">
<style type="text/css">
	.st0{fill:none;stroke:#000000;stroke-width:0.4018;stroke-miterlimit:11.3386;}
	.st1{fill:none;stroke:#231F20;stroke-width:0.25;stroke-miterlimit:11.3386;}
</style>
<circle class="st0" cx="10.8" cy="64.9" r="2.6"/>
<circle class="st0" cx="82.8" cy="64.9" r="2.6"/>
<circle class="st0" cx="154.8" cy="64.9" r="2.6"/>
<circle class="st0" cx="226.8" cy="64.9" r="2.6"/>
<circle class="st0" cx="298.8" cy="64.9" r="2.6"/>
<circle class="st0" cx="10.8" cy="7.1" r="2.6"/>
<circle class="st0" cx="82.8" cy="7.1" r="2.6"/>
<circle class="st0" cx="154.8" cy="7.1" r="2.6"/>
<circle class="st0" cx="226.8" cy="7.1" r="2.6"/>
<circle class="st0" cx="298.8" cy="7.1" r="2.6"/>
<path class="st0" d="M0,10.3V72h309.5V0H10.3L0,10.3z"/>
<path class="st1" d="M23.1,24.7v2.8l3.5,2.8v12c0,1.2,1,2.1,2.1,2.1s2.1-1,2.1-2.1l0-12l3.5-2.8v-2.8H23.1z"/>
<path class="st1" d="M257.1,24.7v2.8l3.5,2.8v12c0,1.2,1,2.1,2.1,2.1s2.1-1,2.1-2.1v-12l3.5-2.8v-2.8H257.1z"/>
<path class="st1" d="M239.1,24.7v2.8l3.5,2.8v12c0,1.2,1,2.1,2.1,2.1s2.1-1,2.1-2.1v-12l3.5-2.8v-2.8H239.1z"/>
<path class="st1" d="M221.1,24.7v2.8l3.5,2.8v12c0,1.2,1,2.1,2.1,2.1s2.1-1,2.1-2.1v-12l3.5-2.8v-2.8H221.1z"/>
<path class="st1" d="M203.1,24.7v2.8l3.5,2.8v12c0,1.2,1,2.1,2.1,2.1s2.1-1,2.1-2.1l0-12l3.5-2.8v-2.8H203.1z"/>
<path class="st1" d="M185.1,24.7v2.8l3.5,2.8v12c0,1.2,1,2.1,2.1,2.1s2.1-1,2.1-2.1l0-12l3.5-2.8v-2.8H185.1z"/>
<path class="st1" d="M167.1,24.7v2.8l3.5,2.8v12c0,1.2,1,2.1,2.1,2.1s2.1-1,2.1-2.1l0-12l3.5-2.8v-2.8H167.1z"/>
<path class="st1" d="M149.1,24.7v2.8l3.5,2.8v12c0,1.2,1,2.1,2.1,2.1s2.1-1,2.1-2.1v-12l3.5-2.8v-2.8H149.1z"/>
<path class="st1" d="M131.1,24.7v2.8l3.5,2.8v12c0,1.2,1,2.1,2.1,2.1s2.1-1,2.1-2.1v-12l3.5-2.8v-2.8H131.1z"/>
<path class="st1" d="M113.1,24.7v2.8l3.5,2.8v12c0,1.2,1,2.1,2.1,2.1s2.1-1,2.1-2.1l0-12l3.5-2.8v-2.8H113.1z"/>
<path class="st1" d="M95.1,24.7v2.8l3.5,2.8v12c0,1.2,1,2.1,2.1,2.1s2.1-1,2.1-2.1l0-12l3.5-2.8v-2.8H95.1z"/>
<path class="st1" d="M77.1,24.7v2.8l3.5,2.8v12c0,1.2,1,2.1,2.1,2.1s2.1-1,2.1-2.1l0-12l3.5-2.8v-2.8H77.1z"/>
<path class="st1" d="M59.1,24.7v2.8l3.5,2.8v12c0,1.2,1,2.1,2.1,2.1s2.1-1,2.1-2.1l0-12l3.5-2.8v-2.8H59.1z"/>
<path class="st1" d="M41.1,24.7v2.8l3.5,2.8v12c0,1.2,1,2.1,2.1,2.1s2.1-1,2.1-2.1l0-12l3.5-2.8v-2.8H41.1z"/>
<path class="st1" d="M275.1,24.7v2.8l3.5,2.8v12c0,1.2,1,2.1,2.1,2.1s2.1-1,2.1-2.1v-12l3.5-2.8v-2.8H275.1z"/>
</svg>
