<?xml version="1.0" encoding="utf-8"?>
<!-- Generator: Adobe Illustrator 28.1.0, SVG Export Plug-In . SVG Version: 6.00 Build 0)  -->
<svg version="1.1" xmlns="http://www.w3.org/2000/svg" xmlns:xlink="http://www.w3.org/1999/xlink" x="0px" y="0px"
	 viewBox="0 0 289.1 34" style="enable-background:new 0 0 289.1 34;" xml:space="preserve">
<style type="text/css">
	.st0{fill:none;stroke:#000000;stroke-width:0.1417;}
	.st1{fill:none;stroke:#231F20;stroke-width:0.25;stroke-miterlimit:11.3386;}
</style>
<g id="Layer_1">
	<path class="st0" d="M0,0h289.1v34H0V0z"/>
</g>
<g id="Layer_2">
	<path class="st1" d="M12.6,6.6v3l3.7,3v12.6c0,1.2,1,2.2,2.2,2.2c1.2,0,2.2-1,2.2-2.2l0-12.6l3.7-3v-3H12.6z"/>
	<path class="st1" d="M246.6,6.6v3l3.7,3v12.6c0,1.2,1,2.2,2.2,2.2c1.2,0,2.2-1,2.2-2.2V12.5l3.7-3v-3H246.6z"/>
	<path class="st1" d="M228.6,6.6v3l3.7,3v12.6c0,1.2,1,2.2,2.2,2.2s2.2-1,2.2-2.2l0-12.6l3.7-3v-3H228.6z"/>
	<path class="st1" d="M210.6,6.6v3l3.7,3v12.6c0,1.2,1,2.2,2.2,2.2c1.2,0,2.2-1,2.2-2.2l0-12.6l3.7-3v-3H210.6z"/>
	<path class="st1" d="M192.6,6.6v3l3.7,3v12.6c0,1.2,1,2.2,2.2,2.2c1.2,0,2.2-1,2.2-2.2l0-12.6l3.7-3v-3H192.6z"/>
	<path class="st1" d="M174.6,6.6v3l3.7,3v12.6c0,1.2,1,2.2,2.2,2.2c1.2,0,2.2-1,2.2-2.2V12.5l3.7-3v-3H174.6z"/>
	<path class="st1" d="M156.6,6.6v3l3.7,3v12.6c0,1.2,1,2.2,2.2,2.2c1.2,0,2.2-1,2.2-2.2V12.5l3.7-3v-3H156.6z"/>
	<path class="st1" d="M138.6,6.6v3l3.7,3v12.6c0,1.2,1,2.2,2.2,2.2c1.2,0,2.2-1,2.2-2.2l0-12.6l3.7-3v-3H138.6z"/>
	<path class="st1" d="M120.6,6.6v3l3.7,3v12.6c0,1.2,1,2.2,2.2,2.2s2.2-1,2.2-2.2l0-12.6l3.7-3v-3H120.6z"/>
	<path class="st1" d="M102.6,6.6v3l3.7,3v12.6c0,1.2,1,2.2,2.2,2.2s2.2-1,2.2-2.2l0-12.6l3.7-3v-3H102.6z"/>
	<path class="st1" d="M84.6,6.6v3l3.7,3v12.6c0,1.2,1,2.2,2.2,2.2c1.2,0,2.2-1,2.2-2.2l0-12.6l3.7-3v-3H84.6z"/>
	<path class="st1" d="M66.6,6.6v3l3.7,3v12.6c0,1.2,1,2.2,2.2,2.2s2.2-1,2.2-2.2l0-12.6l3.7-3v-3H66.6z"/>
	<path class="st1" d="M48.6,6.6v3l3.7,3v12.6c0,1.2,1,2.2,2.2,2.2c1.2,0,2.2-1,2.2-2.2l0-12.6l3.7-3v-3H48.6z"/>
	<path class="st1" d="M30.6,6.6v3l3.7,3v12.6c0,1.2,1,2.2,2.2,2.2c1.2,0,2.2-1,2.2-2.2l0-12.6l3.7-3v-3H30.6z"/>
	<path class="st1" d="M264.6,6.6v3l3.7,3v12.6c0,1.2,1,2.2,2.2,2.2c1.2,0,2.2-1,2.2-2.2l0-12.6l3.7-3v-3H264.6z"/>
</g>
</svg>
